<svg width="352" height="366" viewBox="0 0 352 366" fill="none" xmlns="http://www.w3.org/2000/svg">
<mask id="mask0" mask-type="alpha" maskUnits="userSpaceOnUse" x="0" y="0" width="352" height="366">
<path fill-rule="evenodd" clip-rule="evenodd" d="M0 0.93396H352V365.995H0L0 0.93396Z" fill="white"/>
</mask>
<g mask="url(#mask0)">
<path d="M246.663 69.6574C264.134 69.6574 278.296 55.3846 278.296 37.778C278.296 20.1715 264.134 5.89862 246.663 5.89862C229.192 5.89862 215.029 20.1715 215.029 37.778C215.029 55.3846 229.192 69.6574 246.663 69.6574Z" fill="#C30069"/>
<path d="M171.339 149.516C178.204 149.516 183.768 143.909 183.768 136.992C183.768 130.075 178.204 124.467 171.339 124.467C164.476 124.467 158.912 130.075 158.912 136.992C158.912 143.909 164.476 149.516 171.339 149.516Z" fill="#F0B0B2"/>
<path d="M332.803 169.491C330.102 169.488 327.433 170.064 324.968 171.179C322.505 172.295 320.305 173.925 318.513 175.961C316.846 177.823 314.807 179.31 312.53 180.323C310.252 181.335 307.788 181.852 305.299 181.838H276.04C241.44 185.924 200.781 179.819 182.889 148.021C154.351 97.3008 121.392 115.464 121.392 115.464C120.089 116.465 118.47 116.956 116.835 116.848C115.2 116.74 113.658 116.039 112.496 114.875L89.1302 91.3281C85.7039 87.8786 84.0854 83.0944 84.3727 78.2317C84.5453 75.321 84.0592 72.4089 82.9511 69.7154C81.8431 67.0218 80.1419 64.6173 77.9763 62.6836C70.5663 56.0333 59.0812 56.2954 51.9584 63.259C49.155 65.9974 47.2501 69.5347 46.4993 73.3957C45.7486 77.2568 46.1879 81.257 47.7585 84.8591C49.329 88.4612 51.9555 91.4929 55.2854 93.5471C58.6152 95.6012 62.4889 96.5795 66.3866 96.3507C68.8727 96.2207 71.3581 96.6223 73.6793 97.529C76.0006 98.4358 78.1052 99.8272 79.855 101.612L102.758 124.688C103.906 125.844 104.604 127.377 104.723 129.01C104.842 130.641 104.375 132.26 103.406 133.573C101.211 136.503 99.1923 139.563 97.3613 142.737C96.5267 144.162 95.2053 145.232 93.6444 145.748C92.0836 146.263 90.3899 146.187 88.8802 145.535C87.1989 144.839 85.6854 143.787 84.4415 142.45C83.1978 141.114 82.2525 139.524 81.6695 137.789C80.7791 134.988 79.0622 132.527 76.748 130.734C74.4337 128.941 71.6322 127.903 68.717 127.756C65.8018 127.61 62.9117 128.363 60.4322 129.915C57.9526 131.466 56.0017 133.744 54.8394 136.442C53.6772 139.141 53.3591 142.131 53.9274 145.017C54.4958 147.902 55.9236 150.544 58.0204 152.59C60.1173 154.636 62.7834 155.989 65.6631 156.468C68.5428 156.948 71.4991 156.532 74.1378 155.274C75.7283 154.487 77.4665 154.05 79.2375 153.991C81.0085 153.933 82.7715 154.254 84.4098 154.934L84.7951 155.101C86.3189 155.765 87.5488 156.968 88.2522 158.484C88.9557 160 89.0841 161.723 88.6133 163.328C87.4317 167.458 86.5419 171.669 85.9506 175.927C85.7304 177.564 84.93 179.065 83.6972 180.153C82.4643 181.241 80.8824 181.844 79.2434 181.848H46.6197C41.5985 181.848 36.9086 179.578 33.533 175.832C31.6141 173.694 29.2427 172.018 26.5944 170.929C23.946 169.84 21.0883 169.364 18.2331 169.538C8.32603 170.107 0.39225 178.478 0.236821 188.475C0.174398 192.409 1.30816 196.268 3.48583 199.535C5.66349 202.801 8.78074 205.317 12.4189 206.744C16.0569 208.173 20.0418 208.445 23.8378 207.524C27.6339 206.605 31.0596 204.535 33.6546 201.595C35.3213 199.731 37.3598 198.245 39.6365 197.231C41.9133 196.216 44.3771 195.698 46.8663 195.711H79.2434C80.8664 195.704 82.4372 196.289 83.6664 197.357C84.8956 198.426 85.7008 199.905 85.9338 201.523C86.4514 205.27 87.1995 208.981 88.1739 212.634C88.5816 214.127 88.4313 215.719 87.7519 217.107C87.0724 218.496 85.9108 219.584 84.4875 220.167L84.3727 220.228C80.8349 221.658 76.8173 221.651 73.4046 219.932C70.7404 218.587 67.7266 218.11 64.7815 218.569C61.8366 219.029 59.1066 220.402 56.9708 222.495C54.8349 224.589 53.3992 227.303 52.8631 230.257C52.327 233.211 52.717 236.26 53.979 238.98C55.1856 241.593 57.139 243.782 59.5886 245.266C62.0381 246.752 64.8722 247.466 67.7272 247.317C70.5821 247.168 73.3279 246.164 75.6122 244.432C77.8964 242.698 79.6151 240.318 80.5477 237.594C81.0804 235.961 81.9564 234.461 83.1162 233.198C84.276 231.937 85.6923 230.941 87.2684 230.28L87.9171 230.019C89.4593 229.403 91.172 229.376 92.732 229.945C94.2919 230.514 95.5913 231.638 96.3848 233.107C98.45 236.869 100.774 240.48 103.339 243.914C104.332 245.229 104.819 246.86 104.712 248.508C104.604 250.156 103.909 251.71 102.754 252.88L79.8516 275.961C78.1019 277.746 75.9972 279.137 73.676 280.044C71.3547 280.951 68.8693 281.352 66.3831 281.223C62.4851 280.994 58.611 281.972 55.2809 284.027C51.9509 286.081 49.3243 289.113 47.7541 292.716C46.1838 296.319 45.7449 300.32 46.4965 304.181C47.2481 308.042 49.154 311.58 51.9584 314.318C59.0812 321.277 70.5663 321.54 77.9763 314.89C80.1437 312.954 81.846 310.547 82.9542 307.851C84.0624 305.155 84.5474 302.24 84.3727 299.328C84.0888 294.461 85.7073 289.677 89.1302 286.228L112.492 262.681C113.639 261.523 115.161 260.82 116.78 260.7C118.398 260.58 120.005 261.051 121.308 262.027C124.215 264.239 127.251 266.274 130.4 268.119C131.815 268.96 132.877 270.292 133.388 271.865C133.9 273.438 133.825 275.144 133.178 276.666C131.736 280.072 128.985 282.796 125.495 283.919C122.712 284.814 120.269 286.542 118.487 288.874C116.706 291.205 115.673 294.028 115.525 296.967C115.379 299.906 116.124 302.819 117.663 305.32C119.202 307.82 121.461 309.788 124.139 310.96C126.816 312.133 129.786 312.454 132.65 311.882C135.513 311.31 138.135 309.871 140.167 307.757C142.198 305.643 143.541 302.955 144.016 300.052C144.491 297.149 144.077 294.168 142.829 291.509C142.048 289.907 141.614 288.155 141.556 286.372C141.498 284.587 141.816 282.812 142.491 281.161L142.656 280.769C143.315 279.233 144.509 277.993 146.014 277.284C147.517 276.576 149.227 276.447 150.82 276.921C154.919 278.113 159.097 279.009 163.322 279.604C164.945 279.826 166.434 280.633 167.515 281.875C168.594 283.116 169.192 284.709 169.198 286.36V319.252C169.198 324.311 166.944 329.037 163.224 332.439C161.103 334.374 159.442 336.764 158.361 339.433C157.281 342.102 156.81 344.981 156.983 347.859C157.557 357.842 165.863 365.838 175.784 365.991C179.687 366.053 183.516 364.91 186.757 362.715C189.997 360.52 192.493 357.378 193.911 353.712C195.328 350.045 195.598 346.03 194.686 342.204C193.772 338.379 191.719 334.926 188.802 332.31C186.953 330.629 185.477 328.571 184.472 326.274C183.468 323.975 182.957 321.49 182.973 318.978V286.364C182.966 284.728 183.546 283.146 184.606 281.906C185.667 280.667 187.135 279.855 188.741 279.622C192.351 279.111 195.925 278.381 199.446 277.436C201.04 277.022 202.73 277.209 204.197 277.961C205.663 278.714 206.807 279.98 207.414 281.521L207.671 282.169C208.284 283.772 208.548 285.491 208.445 287.207C208.34 288.923 207.869 290.596 207.065 292.112C205.729 294.727 205.216 297.691 205.595 300.607C205.973 303.524 207.225 306.255 209.183 308.436C211.142 310.617 213.713 312.145 216.554 312.814C219.397 313.484 222.374 313.265 225.089 312.185C227.804 311.106 230.128 309.218 231.751 306.774C233.374 304.33 234.219 301.444 234.173 298.504C234.127 295.562 233.192 292.706 231.492 290.314C229.793 287.923 227.411 286.109 224.663 285.117C221.071 283.823 218.293 280.898 216.875 277.33C216.296 275.861 216.272 274.229 216.805 272.744C217.339 271.258 218.394 270.02 219.771 269.263C223.607 267.15 227.288 264.76 230.783 262.113C232.087 261.112 233.706 260.62 235.342 260.728C236.977 260.836 238.519 261.537 239.683 262.701L262.781 285.949C266.329 289.524 268.053 294.461 267.809 299.529C267.622 303.426 268.611 307.288 270.648 310.606C272.685 313.925 275.673 316.543 279.216 318.113C282.76 319.685 286.693 320.135 290.497 319.406C294.3 318.677 297.795 316.803 300.519 314.03C303.243 311.258 305.068 307.719 305.754 303.878C306.44 300.038 305.953 296.078 304.36 292.523C302.765 288.968 300.138 285.982 296.825 283.963C293.512 281.943 289.67 280.984 285.805 281.212C283.319 281.342 280.833 280.94 278.512 280.033C276.189 279.126 274.084 277.736 272.333 275.951L249.435 252.873C248.286 251.719 247.588 250.184 247.468 248.553C247.35 246.922 247.817 245.302 248.785 243.99C250.98 241.06 252.998 238 254.828 234.826C255.663 233.4 256.984 232.329 258.545 231.814C260.107 231.299 261.802 231.374 263.311 232.028C266.691 233.481 269.394 236.256 270.509 239.771C271.403 242.57 273.122 245.029 275.438 246.818C277.754 248.608 280.557 249.644 283.471 249.787C286.386 249.93 289.276 249.173 291.753 247.62C294.231 246.065 296.18 243.786 297.339 241.088C298.499 238.388 298.813 235.397 298.243 232.514C297.672 229.629 296.242 226.989 294.144 224.944C292.046 222.9 289.38 221.549 286.5 221.071C283.62 220.593 280.664 221.012 278.027 222.271C274.581 223.913 270.563 223.828 267.055 222.315C265.619 221.69 264.458 220.556 263.795 219.127C263.132 217.699 263.012 216.074 263.456 214.562C264.687 210.322 265.609 205.997 266.217 201.622C266.44 199.988 267.24 198.491 268.471 197.405C269.703 196.318 271.281 195.717 272.918 195.711H305.556C310.576 195.711 315.266 197.982 318.639 201.731C320.779 204.108 323.476 205.908 326.482 206.969C329.489 208.029 332.71 208.316 335.855 207.805C338.998 207.292 341.967 205.998 344.488 204.037C347.01 202.076 349.007 199.512 350.297 196.576C351.586 193.642 352.128 190.428 351.873 187.229C351.618 184.029 350.575 180.944 348.838 178.253C347.1 175.563 344.724 173.353 341.923 171.823C339.123 170.293 335.989 169.491 332.803 169.491Z" fill="#F0B0B2"/>
<path d="M221.198 191.049C231.874 191.049 240.529 182.327 240.529 171.568C240.529 160.81 231.874 152.087 221.198 152.087C210.521 152.087 201.867 160.81 201.867 171.568C201.867 182.327 210.521 191.049 221.198 191.049Z" fill="#F0B0B2"/>
<path d="M255.688 157.024C267.877 157.024 277.757 147.067 277.757 134.786C277.757 122.503 267.877 112.546 255.688 112.546C243.501 112.546 233.621 122.503 233.621 134.786C233.621 147.067 243.501 157.024 255.688 157.024Z" fill="#C30069"/>
<path d="M150.157 137.605C160.958 137.605 169.715 128.781 169.715 117.895C169.715 107.01 160.958 98.1862 150.157 98.1862C139.355 98.1862 130.6 107.01 130.6 117.895C130.6 128.781 139.355 137.605 150.157 137.605Z" fill="#F0B0B2"/>
<path d="M266.715 165.272C272.154 165.272 276.565 160.828 276.565 155.345C276.565 149.863 272.154 145.42 266.715 145.42C261.275 145.42 256.865 149.863 256.865 155.345C256.865 160.828 261.275 165.272 266.715 165.272Z" fill="#F0B0B2"/>
<path d="M318.221 30.1608L176.041 188.442" stroke="#BECBD3" stroke-width="9.49153" stroke-linecap="round"/>
<path d="M342.301 34.7932L311.583 6.75296C308.677 4.10039 304.187 4.32404 301.556 7.25249L300.285 8.6658C297.652 11.5943 297.875 16.1185 300.781 18.7711L331.499 46.8113C334.405 49.4639 338.894 49.2402 341.526 46.3118L342.797 44.8984C345.428 41.9701 345.207 37.4458 342.301 34.7932Z" fill="#BECBD3"/>
<path d="M163.2 202.644L128.805 240.867" stroke="white" stroke-width="9.49153" stroke-linecap="round"/>
<path d="M184.278 207.343L156.283 181.788L147.115 191.986L175.112 217.542L184.278 207.343Z" fill="#94C5E3"/>
<path d="M188.276 217.596L145.775 178.804L253.419 58.5123L295.923 97.3042L188.276 217.596Z" fill="#BECBD3"/>
<path d="M197.257 132.297L156.303 177.86L188.178 206.957L229.131 161.393L197.257 132.297Z" fill="#003869"/>
<path d="M308.806 98.7721L251.328 46.3056C247.455 42.7693 241.469 43.0674 237.96 46.9716L236.266 48.8569C232.757 52.7611 233.053 58.7928 236.927 62.3291L294.403 114.796C298.278 118.332 304.264 118.034 307.772 114.13L309.466 112.244C312.975 108.34 312.68 102.308 308.806 98.7721Z" fill="#94C5E3"/>
<path d="M190.178 140.138L209.195 118.243C209.195 118.243 206.573 124.835 215.098 128.625C223.623 132.415 239.024 131.156 243.552 122.748C248.694 113.213 263.737 113.213 269.252 116.874C260.102 126.031 225.886 164.887 225.886 164.887" fill="#003869"/>
<path d="M231.308 121.147C236.629 121.147 240.941 116.801 240.941 111.439C240.941 106.078 236.629 101.731 231.308 101.731C225.988 101.731 221.674 106.078 221.674 111.439C221.674 116.801 225.988 121.147 231.308 121.147Z" fill="#003869"/>
<path d="M249.218 99.1669C251.695 99.1669 253.701 97.1438 253.701 94.6482C253.701 92.1526 251.695 90.1295 249.218 90.1295C246.741 90.1295 244.734 92.1526 244.734 94.6482C244.734 97.1438 246.741 99.1669 249.218 99.1669Z" fill="#003869"/>
<path d="M240.48 170.67C240.48 170.67 239.189 182.543 252.812 182.928C262.477 183.19 230.076 184.971 230.076 184.971" fill="#F0B0B2"/>
<path d="M170.092 51.753C176.575 51.753 181.831 46.4567 181.831 39.9235C181.831 33.3901 176.575 28.0938 170.092 28.0938C163.609 28.0938 158.354 33.3901 158.354 39.9235C158.354 46.4567 163.609 51.753 170.092 51.753Z" fill="#C30069"/>
<path d="M229.375 19.2687C231.276 11.2865 226.397 3.26214 218.477 1.34579C210.556 -0.570564 202.594 4.34678 200.692 12.329C198.791 20.3111 203.67 28.3355 211.59 30.2519C219.511 32.1682 227.473 27.2509 229.375 19.2687Z" fill="#F0B0B2"/>
<path d="M184.635 53.5262C185.61 49.6581 183.287 45.7266 179.449 44.7449C175.611 43.7633 171.71 46.1032 170.736 49.9713C169.761 53.8394 172.084 57.7709 175.921 58.7525C179.76 59.7342 183.661 57.3942 184.635 53.5262Z" fill="#F0B0B2"/>
<path d="M186.384 95.4759C191.264 95.4759 195.22 91.4891 195.22 86.5712C195.22 81.6533 191.264 77.6666 186.384 77.6666C181.505 77.6666 177.549 81.6533 177.549 86.5712C177.549 91.4891 181.505 95.4759 186.384 95.4759Z" fill="#F0B0B2"/>
<path d="M127.705 66.8141C130.765 66.8141 133.247 64.314 133.247 61.2297C133.247 58.1454 130.765 55.6452 127.705 55.6452C124.644 55.6452 122.164 58.1454 122.164 61.2297C122.164 64.314 124.644 66.8141 127.705 66.8141Z" fill="#F0B0B2"/>
</g>
</svg>
