<?xml version="1.0" encoding="UTF-8" standalone="no"?>
<svg
   xmlns:dc="http://purl.org/dc/elements/1.1/"
   xmlns:cc="http://creativecommons.org/ns#"
   xmlns:rdf="http://www.w3.org/1999/02/22-rdf-syntax-ns#"
   xmlns:svg="http://www.w3.org/2000/svg"
   xmlns="http://www.w3.org/2000/svg"
   xmlns:sodipodi="http://sodipodi.sourceforge.net/DTD/sodipodi-0.dtd"
   xmlns:inkscape="http://www.inkscape.org/namespaces/inkscape"
   width="210mm"
   height="297mm"
   viewBox="0 0 210 297"
   version="1.1"
   id="svg8"
   inkscape:version="1.0.2-2 (e86c870879, 2021-01-15)"
   sodipodi:docname="desenhando.svg">
  <defs
     id="defs2">
    <rect
       x="54.919014"
       y="147.09757"
       width="101.6875"
       height="27.168417"
       id="rect841" />
  </defs>
  <sodipodi:namedview
     id="base"
     pagecolor="#ffffff"
     bordercolor="#666666"
     borderopacity="1.0"
     inkscape:pageopacity="0.0"
     inkscape:pageshadow="2"
     inkscape:zoom="0.96407581"
     inkscape:cx="225.90643"
     inkscape:cy="588.76754"
     inkscape:document-units="mm"
     inkscape:current-layer="g894"
     inkscape:document-rotation="0"
     showgrid="false"
     inkscape:window-width="1920"
     inkscape:window-height="1027"
     inkscape:window-x="-8"
     inkscape:window-y="22"
     inkscape:window-maximized="1" />
  <metadata
     id="metadata5">
    <rdf:RDF>
      <cc:Work
         rdf:about="">
        <dc:format>image/svg+xml</dc:format>
        <dc:type
           rdf:resource="http://purl.org/dc/dcmitype/StillImage" />
        <dc:title></dc:title>
      </cc:Work>
    </rdf:RDF>
  </metadata>
  <g
     inkscape:label="Layer 1"
     inkscape:groupmode="layer"
     id="layer1">
    <g
       style="fill:none"
       id="g928"
       transform="matrix(0.26458333,0,0,0.26458333,52.381669,108.84162)">
      <g
         mask="url(#mask0)"
         id="g894">
        <path
           d="m 246.663,69.6574 c 17.471,0 31.633,-14.2728 31.633,-31.8794 0,-17.6065 -14.162,-31.87938 -31.633,-31.87938 -17.471,0 -31.634,14.27288 -31.634,31.87938 0,17.6066 14.163,31.8794 31.634,31.8794 z"
           fill="#c30069"
           id="path848"
           style="fill:#ffccaa;fill-opacity:1" />
        <path
           d="m 171.339,149.516 c 6.865,0 12.429,-5.607 12.429,-12.524 0,-6.917 -5.564,-12.525 -12.429,-12.525 -6.863,0 -12.427,5.608 -12.427,12.525 0,6.917 5.564,12.524 12.427,12.524 z"
           fill="#f0b0b2"
           id="path850"
           style="fill:#ffccaa" />
        <path
           d="m 332.803,169.491 c -2.701,-0.003 -5.37,0.573 -7.835,1.688 -2.463,1.116 -4.663,2.746 -6.455,4.782 -1.667,1.862 -3.706,3.349 -5.983,4.362 -2.278,1.012 -4.742,1.529 -7.231,1.515 H 276.04 c -34.6,4.086 -75.259,-2.019 -93.151,-33.817 -28.538,-50.7202 -61.497,-32.557 -61.497,-32.557 -1.303,1.001 -2.922,1.492 -4.557,1.384 -1.635,-0.108 -3.177,-0.809 -4.339,-1.973 L 89.1302,91.3281 c -3.4263,-3.4495 -5.0448,-8.2337 -4.7575,-13.0964 0.1726,-2.9107 -0.3135,-5.8228 -1.4216,-8.5163 -1.108,-2.6936 -2.8092,-5.0981 -4.9748,-7.0318 -7.41,-6.6503 -18.8951,-6.3882 -26.0179,0.5754 -2.8034,2.7384 -4.7083,6.2757 -5.4591,10.1367 -0.7507,3.8611 -0.3114,7.8613 1.2592,11.4634 1.5705,3.6021 4.197,6.6338 7.5269,8.688 3.3298,2.0541 7.2035,3.0324 11.1012,2.8036 2.4861,-0.13 4.9715,0.2716 7.2927,1.1783 2.3213,0.9068 4.4259,2.2982 6.1757,4.083 l 22.903,23.076 c 1.148,1.156 1.846,2.689 1.965,4.322 0.119,1.631 -0.348,3.25 -1.317,4.563 -2.195,2.93 -4.2137,5.99 -6.0447,9.164 -0.8346,1.425 -2.156,2.495 -3.7169,3.011 -1.5608,0.515 -3.2545,0.439 -4.7642,-0.213 -1.6813,-0.696 -3.1948,-1.748 -4.4387,-3.085 -1.2437,-1.336 -2.189,-2.926 -2.772,-4.661 -0.8904,-2.801 -2.6073,-5.262 -4.9215,-7.055 -2.3143,-1.793 -5.1158,-2.831 -8.031,-2.978 -2.9152,-0.146 -5.8053,0.607 -8.2848,2.159 -2.4796,1.551 -4.4305,3.829 -5.5928,6.527 -1.1622,2.699 -1.4803,5.689 -0.912,8.575 0.5684,2.885 1.9962,5.527 4.093,7.573 2.0969,2.046 4.763,3.399 7.6427,3.878 2.8797,0.48 5.836,0.064 8.4747,-1.194 1.5905,-0.787 3.3287,-1.224 5.0997,-1.283 1.771,-0.058 3.534,0.263 5.1723,0.943 l 0.3853,0.167 c 1.5238,0.664 2.7537,1.867 3.4571,3.383 0.7035,1.516 0.8319,3.239 0.3611,4.844 -1.1816,4.13 -2.0714,8.341 -2.6627,12.599 -0.2202,1.637 -1.0206,3.138 -2.2534,4.226 -1.2329,1.088 -2.8148,1.691 -4.4538,1.695 H 46.6197 c -5.0212,0 -9.7111,-2.27 -13.0867,-6.016 -1.9189,-2.138 -4.2903,-3.814 -6.9386,-4.903 -2.6484,-1.089 -5.5061,-1.565 -8.3613,-1.391 -9.90707,0.569 -17.84085,8.94 -17.996279,18.937 -0.062423,3.934 1.071339,7.793 3.249009,11.06 2.17766,3.266 5.29491,5.782 8.93307,7.209 3.638,1.429 7.6229,1.701 11.4189,0.78 3.7961,-0.919 7.2218,-2.989 9.8168,-5.929 1.6667,-1.864 3.7052,-3.35 5.9819,-4.364 2.2768,-1.015 4.7406,-1.533 7.2298,-1.52 h 32.3771 c 1.623,-0.007 3.1938,0.578 4.423,1.646 1.2292,1.069 2.0344,2.548 2.2674,4.166 0.5176,3.747 1.2657,7.458 2.2401,11.111 0.4077,1.493 0.2574,3.085 -0.422,4.473 -0.6795,1.389 -1.8411,2.477 -3.2644,3.06 l -0.1148,0.061 c -3.5378,1.43 -7.5554,1.423 -10.9681,-0.296 -2.6642,-1.345 -5.678,-1.822 -8.6231,-1.363 -2.9449,0.46 -5.6749,1.833 -7.8107,3.926 -2.1359,2.094 -3.5716,4.808 -4.1077,7.762 -0.5361,2.954 -0.1461,6.003 1.1159,8.723 1.2066,2.613 3.16,4.802 5.6096,6.286 2.4495,1.486 5.2836,2.2 8.1386,2.051 2.8549,-0.149 5.6007,-1.153 7.885,-2.885 2.2842,-1.734 4.0029,-4.114 4.9355,-6.838 0.5327,-1.633 1.4087,-3.133 2.5685,-4.396 1.1598,-1.261 2.5761,-2.257 4.1522,-2.918 l 0.6487,-0.261 c 1.5422,-0.616 3.2549,-0.643 4.8149,-0.074 1.5599,0.569 2.8593,1.693 3.6528,3.162 2.0652,3.762 4.3892,7.373 6.9542,10.807 0.993,1.315 1.48,2.946 1.373,4.594 -0.108,1.648 -0.803,3.202 -1.958,4.372 l -22.9024,23.081 c -1.7497,1.785 -3.8544,3.176 -6.1756,4.083 -2.3213,0.907 -4.8067,1.308 -7.2929,1.179 -3.898,-0.229 -7.7721,0.749 -11.1022,2.804 -3.33,2.054 -5.9566,5.086 -7.5268,8.689 -1.5703,3.603 -2.0092,7.604 -1.2576,11.465 0.7516,3.861 2.6575,7.399 5.4619,10.137 7.1228,6.959 18.6079,7.222 26.0179,0.572 2.1674,-1.936 3.8697,-4.343 4.9779,-7.039 1.1082,-2.696 1.5932,-5.611 1.4185,-8.523 -0.2839,-4.867 1.3346,-9.651 4.7575,-13.1 l 23.3618,-23.547 c 1.147,-1.158 2.669,-1.861 4.288,-1.981 1.618,-0.12 3.225,0.351 4.528,1.327 2.907,2.212 5.943,4.247 9.092,6.092 1.415,0.841 2.477,2.173 2.988,3.746 0.512,1.573 0.437,3.279 -0.21,4.801 -1.442,3.406 -4.193,6.13 -7.683,7.253 -2.783,0.895 -5.226,2.623 -7.008,4.955 -1.781,2.331 -2.814,5.154 -2.962,8.093 -0.146,2.939 0.599,5.852 2.138,8.353 1.539,2.5 3.798,4.468 6.476,5.64 2.677,1.173 5.647,1.494 8.511,0.922 2.863,-0.572 5.485,-2.011 7.517,-4.125 2.031,-2.114 3.374,-4.802 3.849,-7.705 0.475,-2.903 0.061,-5.884 -1.187,-8.543 -0.781,-1.602 -1.215,-3.354 -1.273,-5.137 -0.058,-1.785 0.26,-3.56 0.935,-5.211 l 0.165,-0.392 c 0.659,-1.536 1.853,-2.776 3.358,-3.485 1.503,-0.708 3.213,-0.837 4.806,-0.363 4.099,1.192 8.277,2.088 12.502,2.683 1.623,0.222 3.112,1.029 4.193,2.271 1.079,1.241 1.677,2.834 1.683,4.485 v 32.892 c 0,5.059 -2.254,9.785 -5.974,13.187 -2.121,1.935 -3.782,4.325 -4.863,6.994 -1.08,2.669 -1.551,5.548 -1.378,8.426 0.574,9.983 8.88,17.979 18.801,18.132 3.903,0.062 7.732,-1.081 10.973,-3.276 3.24,-2.195 5.736,-5.337 7.154,-9.003 1.417,-3.667 1.687,-7.682 0.775,-11.508 -0.914,-3.825 -2.967,-7.278 -5.884,-9.894 -1.849,-1.681 -3.325,-3.739 -4.33,-6.036 -1.004,-2.299 -1.515,-4.784 -1.499,-7.296 v -32.614 c -0.007,-1.636 0.573,-3.218 1.633,-4.458 1.061,-1.239 2.529,-2.051 4.135,-2.284 3.61,-0.511 7.184,-1.241 10.705,-2.186 1.594,-0.414 3.284,-0.227 4.751,0.525 1.466,0.753 2.61,2.019 3.217,3.56 l 0.257,0.648 c 0.613,1.603 0.877,3.322 0.774,5.038 -0.105,1.716 -0.576,3.389 -1.38,4.905 -1.336,2.615 -1.849,5.579 -1.47,8.495 0.378,2.917 1.63,5.648 3.588,7.829 1.959,2.181 4.53,3.709 7.371,4.378 2.843,0.67 5.82,0.451 8.535,-0.629 2.715,-1.079 5.039,-2.967 6.662,-5.411 1.623,-2.444 2.468,-5.33 2.422,-8.27 -0.046,-2.942 -0.981,-5.798 -2.681,-8.19 -1.699,-2.391 -4.081,-4.205 -6.829,-5.197 -3.592,-1.294 -6.37,-4.219 -7.788,-7.787 -0.579,-1.469 -0.603,-3.101 -0.07,-4.586 0.534,-1.486 1.589,-2.724 2.966,-3.481 3.836,-2.113 7.517,-4.503 11.012,-7.15 1.304,-1.001 2.923,-1.493 4.559,-1.385 1.635,0.108 3.177,0.809 4.341,1.973 l 23.098,23.248 c 3.548,3.575 5.272,8.512 5.028,13.58 -0.187,3.897 0.802,7.759 2.839,11.077 2.037,3.319 5.025,5.937 8.568,7.507 3.544,1.572 7.477,2.022 11.281,1.293 3.803,-0.729 7.298,-2.603 10.022,-5.376 2.724,-2.772 4.549,-6.311 5.235,-10.152 0.686,-3.84 0.199,-7.8 -1.394,-11.355 -1.595,-3.555 -4.222,-6.541 -7.535,-8.56 -3.313,-2.02 -7.155,-2.979 -11.02,-2.751 -2.486,0.13 -4.972,-0.272 -7.293,-1.179 -2.323,-0.907 -4.428,-2.297 -6.179,-4.082 l -22.898,-23.078 c -1.149,-1.154 -1.847,-2.689 -1.967,-4.32 -0.118,-1.631 0.349,-3.251 1.317,-4.563 2.195,-2.93 4.213,-5.99 6.043,-9.164 0.835,-1.426 2.156,-2.497 3.717,-3.012 1.562,-0.515 3.257,-0.44 4.766,0.214 3.38,1.453 6.083,4.228 7.198,7.743 0.894,2.799 2.613,5.258 4.929,7.047 2.316,1.79 5.119,2.826 8.033,2.969 2.915,0.143 5.805,-0.614 8.282,-2.167 2.478,-1.555 4.427,-3.834 5.586,-6.532 1.16,-2.7 1.474,-5.691 0.904,-8.574 -0.571,-2.885 -2.001,-5.525 -4.099,-7.57 -2.098,-2.044 -4.764,-3.395 -7.644,-3.873 -2.88,-0.478 -5.836,-0.059 -8.473,1.2 -3.446,1.642 -7.464,1.557 -10.972,0.044 -1.436,-0.625 -2.597,-1.759 -3.26,-3.188 -0.663,-1.428 -0.783,-3.053 -0.339,-4.565 1.231,-4.24 2.153,-8.565 2.761,-12.94 0.223,-1.634 1.023,-3.131 2.254,-4.217 1.232,-1.087 2.81,-1.688 4.447,-1.694 h 32.638 c 5.02,0 9.71,2.271 13.083,6.02 2.14,2.377 4.837,4.177 7.843,5.238 3.007,1.06 6.228,1.347 9.373,0.836 3.143,-0.513 6.112,-1.807 8.633,-3.768 2.522,-1.961 4.519,-4.525 5.809,-7.461 1.289,-2.934 1.831,-6.148 1.576,-9.347 -0.255,-3.2 -1.298,-6.285 -3.035,-8.976 -1.738,-2.69 -4.114,-4.9 -6.915,-6.43 -2.8,-1.53 -5.934,-2.332 -9.12,-2.332 z"
           fill="#f0b0b2"
           id="path852"
           style="fill:#ff6600;fill-opacity:1" />
        <path
           d="m 221.198,191.049 c 10.676,0 19.331,-8.722 19.331,-19.481 0,-10.758 -8.655,-19.481 -19.331,-19.481 -10.677,0 -19.331,8.723 -19.331,19.481 0,10.759 8.654,19.481 19.331,19.481 z"
           fill="#f0b0b2"
           id="path854"
           style="fill:#ffccaa" />
        <path
           d="m 255.688,157.024 c 12.189,0 22.069,-9.957 22.069,-22.238 0,-12.283 -9.88,-22.24 -22.069,-22.24 -12.187,0 -22.067,9.957 -22.067,22.24 0,12.281 9.88,22.238 22.067,22.238 z"
           fill="#c30069"
           id="path856"
           style="fill:#ffccaa" />
        <path
           d="m 150.157,137.605 c 10.801,0 19.558,-8.824 19.558,-19.71 0,-10.885 -8.757,-19.7088 -19.558,-19.7088 -10.802,0 -19.557,8.8238 -19.557,19.7088 0,10.886 8.755,19.71 19.557,19.71 z"
           fill="#f0b0b2"
           id="path858"
           style="fill:#ffccaa" />
        <path
           d="m 266.715,165.272 c 5.439,0 9.85,-4.444 9.85,-9.927 0,-5.482 -4.411,-9.925 -9.85,-9.925 -5.44,0 -9.85,4.443 -9.85,9.925 0,5.483 4.41,9.927 9.85,9.927 z"
           fill="#f0b0b2"
           id="path860"
           style="fill:#ffccaa" />
        <path
           d="M 318.221,30.1608 176.041,188.442"
           stroke="#becbd3"
           stroke-width="9.49153"
           stroke-linecap="round"
           id="path862"
           style="stroke:#ff6600;stroke-opacity:1" />
        <path
           d="M 342.301,34.7932 311.583,6.75296 c -2.906,-2.65257 -7.396,-2.42892 -10.027,0.49953 l -1.271,1.41331 c -2.633,2.9285 -2.41,7.4527 0.496,10.1053 l 30.718,28.0402 c 2.906,2.6526 7.395,2.4289 10.027,-0.4995 l 1.271,-1.4134 c 2.631,-2.9283 2.41,-7.4526 -0.496,-10.1052 z"
           fill="#becbd3"
           id="path864"
           style="fill:#ff6600;fill-opacity:1" />
        <path
           d="m 163.2,202.644 -34.395,38.223"
           stroke="#ffffff"
           stroke-width="9.49153"
           stroke-linecap="round"
           id="path866" />
        <path
           d="m 184.278,207.343 -27.995,-25.555 -9.168,10.198 27.997,25.556 z"
           fill="#94c5e3"
           id="path868"
           style="fill:#ffffff" />
        <path
           d="M 188.276,217.596 145.775,178.804 253.419,58.5123 295.923,97.3042 Z"
           fill="#becbd3"
           id="path870"
           style="fill:#ff6600;fill-opacity:1;stroke:#ffffff;stroke-opacity:1;stroke-width:5.9149607;stroke-miterlimit:4;stroke-dasharray:none" />
        <path
           d="M 308.806,98.7721 251.328,46.3056 c -3.873,-3.5363 -9.859,-3.2382 -13.368,0.666 l -1.694,1.8853 c -3.509,3.9042 -3.213,9.9359 0.661,13.4722 l 57.476,52.4669 c 3.875,3.536 9.861,3.238 13.369,-0.666 l 1.694,-1.886 c 3.509,-3.904 3.214,-9.936 -0.66,-13.4719 z"
           fill="#94c5e3"
           id="path874"
           style="fill:#ffffff;stroke:#ff6600;stroke-opacity:1;stroke-width:7.42677174;stroke-miterlimit:4;stroke-dasharray:none" />
        <path
           d="m 240.48,170.67 c 0,0 -1.291,11.873 12.332,12.258 9.665,0.262 -22.736,2.043 -22.736,2.043"
           fill="#f0b0b2"
           id="path882"
           style="fill:#ffccaa" />
        <path
           d="m 170.092,51.753 c 6.483,0 11.739,-5.2963 11.739,-11.8295 0,-6.5334 -5.256,-11.8297 -11.739,-11.8297 -6.483,0 -11.738,5.2963 -11.738,11.8297 0,6.5332 5.255,11.8295 11.738,11.8295 z"
           fill="#c30069"
           id="path884"
           style="fill:#ffccaa" />
        <path
           d="m 229.375,19.2687 c 1.901,-7.9822 -2.978,-16.00656 -10.898,-17.92291 -7.921,-1.916354 -15.883,3.00099 -17.785,10.98321 -1.901,7.9821 2.978,16.0065 10.898,17.9229 7.921,1.9163 15.883,-3.001 17.785,-10.9832 z"
           fill="#f0b0b2"
           id="path886"
           style="fill:#ffccaa" />
        <path
           d="m 184.635,53.5262 c 0.975,-3.8681 -1.348,-7.7996 -5.186,-8.7813 -3.838,-0.9816 -7.739,1.3583 -8.713,5.2264 -0.975,3.8681 1.348,7.7996 5.185,8.7812 3.839,0.9817 7.74,-1.3583 8.714,-5.2263 z"
           fill="#f0b0b2"
           id="path888"
           style="fill:#ffccaa" />
        <path
           d="m 186.384,95.4759 c 4.88,0 8.836,-3.9868 8.836,-8.9047 0,-4.9179 -3.956,-8.9046 -8.836,-8.9046 -4.879,0 -8.835,3.9867 -8.835,8.9046 0,4.9179 3.956,8.9047 8.835,8.9047 z"
           fill="#f0b0b2"
           id="path890"
           style="fill:#ffccaa" />
      </g>
    </g>
  </g>
</svg>
